<svg width="210" height="209" viewBox="0 0 210 209" fill="none" xmlns="http://www.w3.org/2000/svg">
<path d="M21.1273 94.5008C20.4867 94.4997 19.9265 94.0691 19.7606 93.4504C19.5947 92.8316 19.8644 92.1786 20.4185 91.8571L172.881 3.17645L164.893 2.83624C164.113 2.80175 163.507 2.14247 163.539 1.36201C163.554 0.985952 163.718 0.631193 163.994 0.375925C164.271 0.120658 164.638 -0.0141629 165.014 0.00117969L177.842 0.546929C178.473 0.572393 179.01 1.01135 179.161 1.62384C179.312 2.23634 179.041 2.87497 178.494 3.19062L21.8573 94.3024C21.6376 94.4362 21.3845 94.505 21.1273 94.5008V94.5008Z" fill="#372168"/>
<path d="M172.916 14.3041C172.436 14.3031 171.989 14.0588 171.728 13.6552C171.468 13.2516 171.429 12.7435 171.626 12.3053L176.474 1.39036C176.791 0.674021 177.629 0.350349 178.346 0.667416C179.062 0.984482 179.386 1.82222 179.068 2.53856L174.213 13.4606C173.986 13.9737 173.478 14.3044 172.916 14.3041Z" fill="#372168"/>
<path fill-rule="evenodd" clip-rule="evenodd" d="M184.944 147.601V52.4427C184.946 50.6576 184.238 48.9449 182.977 47.682C181.715 46.419 180.003 45.7094 178.218 45.7094H148.974C147.189 45.7094 145.477 46.419 144.216 47.682C142.954 48.9449 142.246 50.6576 142.248 52.4427V200.426C142.248 204.141 145.26 207.152 148.974 207.152H178.197C181.912 207.152 184.923 204.141 184.923 200.426V168.085" fill="#21D363"/>
<path d="M178.197 208.555H148.953C144.457 208.551 140.813 204.908 140.809 200.412V52.4427C140.813 47.9456 144.456 44.2997 148.953 44.2919H178.197C182.694 44.2997 186.337 47.9456 186.34 52.4427V147.602C186.34 148.384 185.706 149.019 184.923 149.019C184.14 149.019 183.505 148.384 183.505 147.602V52.4427C183.502 49.5113 181.128 47.1348 178.197 47.127H148.953C146.022 47.1348 143.648 49.5113 143.644 52.4427V200.426C143.648 203.356 146.023 205.731 148.953 205.734H178.197C181.127 205.731 183.501 203.356 183.505 200.426V168.085C183.505 167.302 184.14 166.667 184.923 166.667C185.706 166.667 186.34 167.302 186.34 168.085V200.426C186.325 204.915 182.686 208.548 178.197 208.555Z" fill="#372168"/>
<path fill-rule="evenodd" clip-rule="evenodd" d="M123.324 116.416V82.3951C123.324 78.7782 120.392 75.8461 116.775 75.8461H87.1771C83.5602 75.8461 80.6281 78.7782 80.6281 82.3951V200.596C80.6281 204.214 83.559 207.148 87.1771 207.152H116.775C120.393 207.148 123.324 204.214 123.324 200.596V129.776" fill="#F2C94C"/>
<path d="M116.768 208.555H87.1771C82.7778 208.548 79.2145 204.981 79.2106 200.582V82.3455C79.2145 77.9474 82.779 74.3829 87.1771 74.379H116.768C121.169 74.379 124.738 77.9446 124.742 82.3455V116.366C124.742 117.149 124.107 117.784 123.324 117.784C122.541 117.784 121.907 117.149 121.907 116.366V82.3455C121.903 79.5104 119.603 77.2141 116.768 77.2141H87.1771C84.3447 77.218 82.0496 79.5131 82.0457 82.3455V200.596C82.0457 203.431 84.3419 205.731 87.1771 205.734H116.768C119.604 205.731 121.903 203.432 121.907 200.596V129.776C121.907 128.993 122.541 128.359 123.324 128.359C124.107 128.359 124.742 128.993 124.742 129.776V200.596C124.73 204.992 121.165 208.551 116.768 208.555V208.555Z" fill="#372168"/>
<path fill-rule="evenodd" clip-rule="evenodd" d="M40.3561 142.279H25.5571C21.9402 142.279 19.0081 145.211 19.0081 148.828V200.568C19.0081 204.186 21.939 207.12 25.5571 207.124H55.1551C58.7732 207.12 61.7041 204.186 61.7041 200.568V148.828C61.7041 145.211 58.772 142.279 55.1551 142.279H40.3561Z" fill="#F9D0C7"/>
<path fill-rule="evenodd" clip-rule="evenodd" d="M25.5571 208.555H55.1551C59.5544 208.547 63.1177 204.981 63.1216 200.582V148.842C63.1177 144.444 59.5533 140.879 55.1551 140.875H25.5571C21.1589 140.879 17.5945 144.444 17.5906 148.842V200.582C17.5945 204.981 21.1578 208.547 25.5571 208.555ZM20.4256 148.813C20.4295 145.981 22.7247 143.686 25.5571 143.682H55.1551C57.9875 143.686 60.2827 145.981 60.2866 148.813V200.553C60.2866 203.389 57.9903 205.688 55.1551 205.692H25.5571C22.7219 205.688 20.4256 203.389 20.4256 200.553V148.813Z" fill="#372168"/>
<path d="M1.43071 183.749C0.767512 183.755 0.188736 183.3 0.0374934 182.654C-0.113749 182.009 0.202978 181.344 0.799911 181.055L36.8264 163.194C39.0142 162.105 41.5378 161.902 43.8716 162.627L100.07 179.978C101.871 180.538 103.818 180.396 105.52 179.581L160.804 153.222C162.525 152.401 164.476 152.193 166.332 152.634L208.858 162.727C209.367 162.827 209.78 163.198 209.935 163.693C210.09 164.188 209.962 164.729 209.602 165.102C209.242 165.475 208.706 165.621 208.206 165.484L165.68 155.391C164.452 155.098 163.161 155.236 162.023 155.781L106.739 182.14C104.396 183.264 101.715 183.461 99.2332 182.692L43.0352 165.321C41.3923 164.806 39.6141 164.949 38.0739 165.718L2.04734 183.621C1.85396 183.709 1.64322 183.753 1.43071 183.749Z" fill="#372168"/>
<path d="M163.596 99.6961C163.44 99.6956 163.288 99.6432 163.164 99.5472L156.324 94.2953C156.106 94.1473 155.988 93.8904 156.018 93.6285C156.048 93.3665 156.22 93.1427 156.466 93.0476C156.712 92.9525 156.991 93.0017 157.189 93.1754L164.029 98.4203C164.274 98.6041 164.373 98.9246 164.275 99.2148C164.176 99.505 163.903 99.6992 163.596 99.6961V99.6961Z" fill="#372168"/>
<path d="M170.436 98.3848C170.279 98.3843 170.127 98.332 170.003 98.236L156.324 87.7392C156.013 87.5004 155.954 87.0546 156.193 86.7434C156.432 86.4322 156.878 86.3735 157.189 86.6122L170.868 97.1091C171.113 97.2929 171.212 97.6134 171.114 97.9036C171.016 98.1938 170.742 98.3879 170.436 98.3848V98.3848Z" fill="#372168"/>
<path d="M170.436 91.687C170.279 91.6865 170.127 91.6342 170.003 91.5382L166.24 88.6535C166.026 88.5049 165.91 88.2508 165.939 87.9917C165.969 87.7327 166.138 87.5106 166.38 87.4134C166.621 87.3162 166.897 87.3597 167.097 87.5266L170.868 90.4183C171.177 90.6575 171.234 91.1012 170.996 91.4106C170.862 91.5844 170.655 91.6865 170.436 91.687Z" fill="#372168"/>
<path d="M85.2351 84.3867C84.8437 84.3867 84.5264 84.0694 84.5264 83.678C84.5264 81.4781 86.3097 79.6947 88.5096 79.6947C88.9011 79.6947 89.2184 80.012 89.2184 80.4035C89.2184 80.7949 88.9011 81.1122 88.5096 81.1122C87.0942 81.1161 85.9478 82.2626 85.9439 83.678C85.9439 84.0694 85.6266 84.3867 85.2351 84.3867Z" fill="#372168"/>
<path d="M23.4875 150.727C23.096 150.727 22.7787 150.41 22.7787 150.018C22.7787 147.819 24.5621 146.035 26.762 146.035C27.1534 146.035 27.4707 146.352 27.4707 146.744C27.4707 147.135 27.1534 147.453 26.762 147.453C25.345 147.453 24.1962 148.601 24.1962 150.018C24.1962 150.206 24.1216 150.387 23.9887 150.52C23.8557 150.653 23.6755 150.727 23.4875 150.727V150.727Z" fill="#372168"/>
</svg>
