<svg width="210" height="208" viewBox="0 0 210 208" fill="none" xmlns="http://www.w3.org/2000/svg">
<path d="M169.206 70.4053C169.401 83.7278 165.769 96.8264 158.74 108.146C156.745 111.369 154.936 114.704 153.194 118.068L111.829 198C109.387 202.721 104.516 205.686 99.2005 205.686C93.8853 205.686 89.014 202.721 86.5721 198L45.2067 118.105C43.4648 114.733 41.656 111.406 39.6536 108.183C26.1941 86.4173 25.6785 59.0434 38.3086 36.7865C50.9387 14.5295 74.7032 0.933918 100.291 1.32652C138.009 1.86992 168.737 32.6948 169.206 70.4053Z" fill="white"/>
<path fill-rule="evenodd" clip-rule="evenodd" d="M85.247 198.685C87.8989 203.943 93.3084 207.236 99.1968 207.178C105.1 207.248 110.528 203.953 113.191 198.685L154.512 118.753C156.604 114.711 158.301 111.681 160.005 108.927C167.184 97.367 170.894 83.9893 170.695 70.3829C170.238 40.2302 150.903 13.6093 122.369 3.84979C93.8359 -5.90976 62.2472 3.29283 43.4198 26.8497C24.5923 50.4066 22.5791 83.2469 38.3881 108.927C40.1002 111.689 41.7974 114.718 43.8816 118.753L85.247 198.685ZM39.2961 37.9224C51.3997 16.1984 74.3286 2.74292 99.1968 2.77059L100.299 2.7557C137.333 3.44896 167.16 33.3611 167.747 70.3978C167.942 83.437 164.387 96.2576 157.504 107.334C155.755 110.155 154.028 113.252 151.899 117.361L110.497 197.315C108.311 201.543 103.949 204.198 99.1894 204.198C94.4299 204.198 90.068 201.543 87.8822 197.315L46.5391 117.383C44.4102 113.274 42.6832 110.185 40.9265 107.356C27.8166 86.2245 27.1925 59.6464 39.2961 37.9224Z" fill="#372168"/>
<path fill-rule="evenodd" clip-rule="evenodd" d="M126.106 56.463C136.217 70.3962 134.003 89.746 121.007 101.036C108.01 112.325 88.5407 111.81 76.1589 99.8496C63.7771 87.889 62.589 68.4492 73.4221 55.0698C84.2551 41.6904 103.517 38.8084 117.792 48.4311" fill="#21D363"/>
<path d="M99.1968 110.743C84.2941 110.746 71.0497 101.244 66.2783 87.126C61.5068 73.0078 66.2714 57.4192 78.1205 48.381C89.9696 39.3428 106.263 38.8688 118.618 47.2028C119.098 47.4819 119.383 48.0053 119.357 48.5602C119.331 49.1152 118.998 49.6095 118.493 49.8421C117.989 50.0748 117.397 50.0072 116.958 49.6668C103.303 40.4541 84.8717 43.2056 74.5029 56.0045C64.1341 68.8035 65.267 87.4046 77.1126 98.8505C88.9582 110.296 107.587 110.791 120.023 99.9887C132.459 89.1868 134.576 70.672 124.9 57.3413C124.585 56.9065 124.526 56.3366 124.745 55.8463C124.964 55.356 125.428 55.0197 125.962 54.9642C126.496 54.9087 127.019 55.1423 127.334 55.5772C135.014 66.1449 136.115 80.128 130.183 91.7671C124.251 103.406 112.29 110.732 99.2266 110.729L99.1968 110.743Z" fill="#372168"/>
<path d="M144.076 31.0646C143.845 31.064 143.628 30.9568 143.488 30.7743C139.915 26.1212 135.221 22.4509 129.843 20.1073C129.471 19.941 129.302 19.5063 129.463 19.1321C129.627 18.757 130.062 18.5841 130.439 18.745C136.047 21.1851 140.942 25.0122 144.664 29.8661C144.914 30.1911 144.854 30.6571 144.53 30.9083C144.4 31.0091 144.24 31.0641 144.076 31.0646Z" fill="#372168"/>
<path d="M70.203 140.273C70.2919 144.505 69.5979 148.717 68.156 152.697C67.3992 154.77 66.4418 156.765 65.2976 158.652C64.3299 160.26 63.3919 161.883 62.5284 163.542L42.6385 201.99C41.3236 204.523 38.7074 206.112 35.8535 206.112C32.9996 206.112 30.3833 204.523 29.0684 201.99L9.17849 163.542C8.315 161.883 7.37708 160.26 6.40938 158.652C3.18399 153.312 1.48473 147.189 1.49645 140.95C1.30323 121.978 16.5271 106.441 35.4999 106.247C54.4727 106.054 70.0098 121.278 70.203 140.251V140.273Z" fill="white"/>
<path fill-rule="evenodd" clip-rule="evenodd" d="M27.7434 202.697C29.3086 205.729 32.4377 207.631 35.8498 207.625C39.2655 207.637 42.3998 205.734 43.9635 202.697L63.8535 164.257C64.583 162.843 65.4241 161.362 66.5779 159.456C67.768 157.474 68.7651 155.383 69.5554 153.211C71.0623 149.06 71.7866 144.666 71.6918 140.251C71.3863 125.193 61.702 111.932 47.4519 107.058C33.2018 102.184 17.4246 106.736 7.96126 118.452C-1.5021 130.168 -2.63361 146.55 5.12905 159.456C6.28285 161.362 7.10911 162.843 7.8535 164.257L27.7434 202.697ZM7.22757 124.785C13.0608 114.469 23.999 108.096 35.8498 108.108H35.8423C36.2939 108.108 36.743 108.116 37.1897 108.131C54.5499 108.839 68.3625 122.932 68.7217 140.303C68.8594 146.497 67.233 152.603 64.0321 157.908C63.9565 158.035 63.8821 158.16 63.8088 158.284C62.735 160.093 61.9077 161.486 61.2109 162.88L41.321 201.327C40.2645 203.368 38.1586 204.649 35.8609 204.649C33.5633 204.649 31.4574 203.368 30.4009 201.327L10.5035 162.88C9.74423 161.406 8.87331 159.873 7.68974 157.908C1.57097 147.759 1.39435 135.1 7.22757 124.785Z" fill="#372168"/>
<path fill-rule="evenodd" clip-rule="evenodd" d="M35.8572 159.597C44.8688 159.597 52.1741 152.292 52.1741 143.28C52.1741 134.269 44.8688 126.964 35.8572 126.964C26.8457 126.964 19.5403 134.269 19.5403 143.28C19.5403 152.292 26.8457 159.597 35.8572 159.597Z" fill="#F9D0C7"/>
<path fill-rule="evenodd" clip-rule="evenodd" d="M19.3889 150.105C22.1495 156.758 28.6467 161.092 35.8497 161.086C45.6743 161.07 53.6323 153.105 53.6405 143.28C53.6405 136.077 49.3007 129.584 42.6453 126.829C35.99 124.074 28.3303 125.6 23.2391 130.695C18.1479 135.791 16.6282 143.452 19.3889 150.105ZM22.1397 137.596C24.4395 132.055 29.851 128.446 35.8497 128.452C44.0299 128.469 50.6548 135.1 50.663 143.28C50.663 149.279 47.0486 154.687 41.5059 156.981C35.9632 159.275 29.5842 158.004 25.3445 153.76C21.1049 149.516 19.8399 143.136 22.1397 137.596Z" fill="#372168"/>
<path d="M55.6503 123.644C55.42 123.643 55.2028 123.536 55.0623 123.353C53.3067 121.077 51.0014 119.284 48.3628 118.143C48.1051 118.046 47.9219 117.815 47.8865 117.542C47.851 117.269 47.9692 116.998 48.1936 116.839C48.4181 116.679 48.7122 116.657 48.9583 116.78C51.8193 118.025 54.3168 119.977 56.2161 122.453C56.466 122.778 56.4061 123.243 56.0821 123.495C55.9573 123.588 55.8063 123.64 55.6503 123.644V123.644Z" fill="#372168"/>
<path d="M206.485 103.076C209.437 112.857 209.176 123.327 205.74 132.948C204.709 135.799 203.4 138.542 201.832 141.137C200.626 143.132 199.443 145.141 198.371 147.218L170.643 200.732C168.954 203.998 165.584 206.05 161.907 206.05C158.23 206.05 154.86 203.998 153.172 200.732L125.466 147.188C124.394 145.112 123.233 143.102 121.997 141.107C120.429 138.513 119.122 135.771 118.097 132.919C116.243 127.823 115.298 122.441 115.305 117.019C115.305 86.8487 143.971 63.3783 175.548 72.3556C190.454 76.6004 202.136 88.2009 206.485 103.076V103.076Z" fill="white"/>
<path fill-rule="evenodd" clip-rule="evenodd" d="M151.847 201.424C153.788 205.19 157.674 207.553 161.911 207.543C166.157 207.563 170.054 205.199 171.997 201.424L199.674 147.843C200.753 145.789 201.959 143.764 203.09 141.888C204.704 139.216 206.055 136.394 207.125 133.462C210.667 123.541 210.943 112.748 207.914 102.659C203.376 87.3256 191.326 75.3682 175.958 70.9486C160.809 66.6461 145.133 69.4524 132.947 78.653C113.259 93.4946 107.981 120.819 120.724 141.926C121.863 143.779 123.069 145.811 124.141 147.881L151.847 201.424ZM122.618 94.8409C130.638 80.6704 145.673 71.9227 161.956 71.9536C166.415 71.96 170.852 72.5863 175.139 73.8145C189.523 77.9508 200.801 89.1418 205.048 103.493C207.895 112.975 207.634 123.119 204.304 132.442C203.302 135.193 202.035 137.841 200.522 140.348C199.361 142.268 198.133 144.345 197.009 146.511L169.303 200.055C167.868 202.827 165.007 204.568 161.885 204.568C158.763 204.568 155.902 202.827 154.467 200.055L126.761 146.511C125.652 144.36 124.416 142.275 123.248 140.348C114.839 126.404 114.599 109.011 122.618 94.8409Z" fill="#372168"/>
<path fill-rule="evenodd" clip-rule="evenodd" d="M161.911 142.313C174.133 142.313 184.042 132.405 184.042 120.182C184.042 107.96 174.133 98.0517 161.911 98.0517C149.689 98.0517 139.781 107.96 139.781 120.182C139.781 132.405 149.689 142.313 161.911 142.313Z" fill="#F2C94C"/>
<path fill-rule="evenodd" clip-rule="evenodd" d="M140.084 129.219C143.743 138.044 152.357 143.797 161.911 143.794C174.948 143.778 185.511 133.211 185.523 120.175C185.523 110.621 179.767 102.008 170.941 98.3527C162.114 94.6973 151.954 96.7195 145.2 103.476C138.445 110.233 136.426 120.393 140.084 129.219ZM142.835 112.28C146.031 104.566 153.561 99.5375 161.911 99.5405C173.302 99.5528 182.533 108.784 182.545 120.175C182.548 128.525 177.52 136.054 169.806 139.251C162.092 142.448 153.212 140.683 147.308 134.778C141.403 128.874 139.638 119.994 142.835 112.28Z" fill="#372168"/>
<path d="M190.607 91.3895C190.393 91.3892 190.19 91.297 190.049 91.1364C187.153 87.8474 183.657 85.1415 179.747 83.164C179.412 82.963 179.29 82.5383 179.466 82.1903C179.642 81.8424 180.057 81.6891 180.416 81.839C184.498 83.8974 188.147 86.7201 191.165 90.1538C191.436 90.4623 191.406 90.9318 191.098 91.2034C190.963 91.323 190.788 91.3892 190.607 91.3895Z" fill="#372168"/>
<path d="M98.2142 152.511C98.0523 152.509 97.8955 152.454 97.7676 152.354L91.6116 147.635C91.3157 147.376 91.2724 146.931 91.5128 146.62C91.7531 146.309 92.1942 146.238 92.5197 146.459L98.6683 151.178C98.9193 151.373 99.019 151.706 98.9165 152.007C98.814 152.307 98.532 152.51 98.2142 152.511V152.511Z" fill="#372168"/>
<path d="M104.37 151.335C104.206 151.334 104.046 151.279 103.916 151.178L91.6041 141.74C91.2772 141.489 91.2156 141.021 91.4664 140.694C91.7171 140.367 92.1854 140.305 92.5122 140.556L104.809 149.995C105.066 150.187 105.17 150.522 105.069 150.826C104.968 151.13 104.683 151.335 104.363 151.335H104.37Z" fill="#372168"/>
<path d="M104.37 145.313C104.206 145.312 104.046 145.257 103.916 145.156L100.529 142.558C100.3 142.403 100.176 142.133 100.207 141.858C100.239 141.583 100.42 141.348 100.678 141.248C100.937 141.148 101.229 141.2 101.437 141.382L104.817 143.98C105.067 144.174 105.167 144.505 105.066 144.805C104.966 145.105 104.687 145.308 104.37 145.313V145.313Z" fill="#372168"/>
<path d="M162.462 17.7253C162.109 17.7347 161.799 17.4954 161.718 17.1521C161.671 16.9585 161.703 16.7543 161.808 16.585C161.913 16.4158 162.082 16.2956 162.276 16.2514L167.129 15.1199C167.53 15.0254 167.932 15.2737 168.026 15.6745C168.121 16.0753 167.872 16.4769 167.472 16.5715L162.611 17.703C162.562 17.7163 162.512 17.7238 162.462 17.7253V17.7253Z" fill="#372168"/>
<path d="M158.472 13.2813C158.269 13.2806 158.076 13.1972 157.936 13.0506C157.647 12.7603 157.647 12.2913 157.936 12.001L162.008 8.11533C162.306 7.82961 162.779 7.8396 163.065 8.13766C163.351 8.43572 163.341 8.90896 163.043 9.19468L158.963 13.0804C158.83 13.2055 158.655 13.277 158.472 13.2813V13.2813Z" fill="#372168"/>
<path d="M153.738 9.5594C153.686 9.56673 153.633 9.56673 153.581 9.5594C153.388 9.51834 153.218 9.40181 153.111 9.23557C153.003 9.06934 152.966 8.86709 153.008 8.67358L154.14 3.46289C154.196 3.19695 154.389 2.98101 154.647 2.8964C154.905 2.81179 155.189 2.87138 155.392 3.05272C155.594 3.23406 155.684 3.50959 155.628 3.77554L154.504 8.98622C154.422 9.33807 154.099 9.57979 153.738 9.5594Z" fill="#372168"/>
</svg>
